<svg xmlns="http://www.w3.org/2000/svg" viewBox="0 0 64 64">
  <rect width="64" height="64" rx="14" fill="#f5ede0"/>
  <!-- Outer ring -->
  <circle cx="32" cy="32" r="28" fill="none" stroke="#C9824A" stroke-width="1.2" opacity="0.7"/>
  <!-- Middle ring -->
  <circle cx="32" cy="32" r="20" fill="none" stroke="#C9824A" stroke-width="0.8" opacity="0.5"/>
  <!-- Spokes -->
  <line x1="32" y1="4" x2="32" y2="60" stroke="#C9824A" stroke-width="0.8" opacity="0.4"/>
  <line x1="4" y1="32" x2="60" y2="32" stroke="#C9824A" stroke-width="0.8" opacity="0.4"/>
  <line x1="11" y1="11" x2="53" y2="53" stroke="#C9824A" stroke-width="0.8" opacity="0.4"/>
  <line x1="53" y1="11" x2="11" y2="53" stroke="#C9824A" stroke-width="0.8" opacity="0.4"/>
  <!-- Star points -->
  <polygon points="32,8 34,20 32,16 30,20" fill="#C9824A" opacity="0.9"/>
  <polygon points="32,56 34,44 32,48 30,44" fill="#C9824A" opacity="0.9"/>
  <polygon points="8,32 20,30 16,32 20,34" fill="#C9824A" opacity="0.9"/>
  <polygon points="56,32 44,30 48,32 44,34" fill="#C9824A" opacity="0.9"/>
  <polygon points="13,13 21,22 18,19 22,21" fill="#C9824A" opacity="0.8"/>
  <polygon points="51,51 43,42 46,45 42,43" fill="#C9824A" opacity="0.8"/>
  <polygon points="51,13 42,21 45,18 43,22" fill="#C9824A" opacity="0.8"/>
  <polygon points="13,51 22,43 19,46 21,42" fill="#C9824A" opacity="0.8"/>
  <!-- Hub -->
  <circle cx="32" cy="32" r="5" fill="#C9824A" opacity="0.95"/>
  <circle cx="32" cy="32" r="2.5" fill="#0a0a0f"/>
</svg>
